<?xml version="1.0" standalone="no"?>
<!DOCTYPE svg PUBLIC "-//W3C//DTD SVG 20010904//EN"
 "http://www.w3.org/TR/2001/REC-SVG-20010904/DTD/svg10.dtd">
<svg version="1.0" xmlns="http://www.w3.org/2000/svg"
 width="736.000000pt" height="736.000000pt" viewBox="0 0 736.000000 736.000000"
 preserveAspectRatio="xMidYMid meet">

<g transform="translate(0.000000,736.000000) scale(0.100000,-0.100000)"
fill="#000000" stroke="none">
<path d="M0 3680 l0 -3680 3680 0 3680 0 0 3680 0 3680 -3680 0 -3680 0 0
-3680z m4090 2435 c197 -29 401 -85 582 -159 89 -36 311 -148 338 -170 8 -7
36 -25 62 -39 68 -39 243 -171 262 -198 9 -13 16 -20 16 -15 0 5 7 3 15 -4 8
-7 12 -16 9 -21 -3 -5 -1 -8 4 -7 9 3 72 -54 157 -143 22 -23 32 -39 23 -36
-10 3 -20 2 -23 -3 -4 -6 -1 -10 6 -10 8 0 8 -4 -1 -15 -9 -11 -16 -13 -23 -6
-7 7 -5 16 6 29 21 23 21 29 2 29 -20 0 -30 -40 -15 -66 6 -12 9 -25 6 -30 -3
-4 8 -18 25 -30 16 -12 27 -26 24 -31 -3 -5 -1 -11 4 -15 5 -3 14 3 20 12 6
10 11 13 11 6 0 -6 -4 -15 -10 -18 -5 -3 3 -23 18 -44 21 -30 30 -36 41 -28
21 18 37 16 37 -3 0 -10 -5 -16 -10 -13 -6 4 -6 -1 -1 -13 4 -10 8 -26 9 -34
1 -8 8 -26 15 -40 l12 -25 -20 25 c-11 14 -19 30 -17 35 4 10 -11 28 -29 35
-5 3 -21 21 -35 42 -14 21 -57 72 -95 115 -39 42 -69 80 -67 85 1 5 -1 7 -6 4
-5 -3 -22 8 -38 25 -24 25 -26 32 -14 39 8 5 11 12 7 17 -5 4 -12 1 -17 -7 -7
-11 -11 -11 -24 -1 -9 7 -13 18 -9 24 3 5 2 8 -3 4 -5 -3 -32 15 -59 40 -35
32 -41 40 -20 28 17 -9 38 -26 48 -37 17 -21 32 -22 19 -2 -12 19 -85 63 -94
58 -12 -8 -148 98 -141 109 3 6 1 7 -6 3 -15 -10 -43 13 -34 27 3 6 1 7 -5 3
-15 -9 -55 18 -44 29 4 5 1 5 -6 1 -7 -4 -37 7 -70 27 -227 137 -511 238 -807
288 -157 26 -441 36 -600 20 -458 -46 -884 -221 -1240 -508 -494 -399 -803
-970 -866 -1598 -23 -232 -1 -550 54 -772 l23 -91 -54 -7 c-30 -4 -58 -3 -62
2 -10 12 -48 192 -66 318 -20 138 -23 484 -5 610 47 332 120 573 252 832 283
553 761 976 1344 1191 196 71 444 124 685 146 88 8 397 -4 500 -19z m1504
-826 c4 1 17 -11 29 -26 47 -59 48 -60 32 -60 -7 0 -13 3 -12 6 4 15 -26 52
-38 48 -8 -4 -11 1 -8 12 3 11 -2 17 -17 18 -11 1 -18 -2 -15 -8 4 -5 1 -9 -4
-9 -14 0 -14 13 1 28 8 8 14 9 19 1 3 -6 9 -10 13 -10z m-14 -45 c0 -2 -9 -4
-20 -4 -11 0 -20 4 -20 9 0 5 9 7 20 4 11 -3 20 -7 20 -9z m44 -35 c-6 -10
-44 1 -44 13 0 5 4 7 9 3 5 -3 13 0 17 6 5 8 9 7 15 -2 4 -7 6 -16 3 -20z m75
-42 c8 -10 7 -14 -2 -14 -8 0 -14 6 -14 14 0 7 1 13 2 13 2 0 8 -6 14 -13z
m-1774 -42 c215 -37 350 -99 460 -209 72 -73 142 -188 164 -272 l11 -41 127
44 c292 100 482 133 803 140 259 6 411 -7 635 -53 167 -35 164 -34 135 -49
l-24 -13 24 -5 c19 -3 17 -5 -10 -5 l-35 -1 25 21 c24 20 24 21 3 15 -28 -9
-63 -16 -45 -10 24 8 12 21 -26 28 -21 3 -49 2 -62 -4 -22 -9 -23 -10 -5 -12
11 -1 -2 -8 -30 -15 l-50 -14 62 6 c37 3 71 0 83 -6 12 -6 40 -15 63 -20 l42
-9 -40 4 c-22 3 -137 7 -256 11 -531 16 -932 -66 -1384 -285 -271 -131 -526
-294 -995 -636 -705 -514 -1055 -708 -1504 -834 -487 -137 -1067 -103 -1613
95 -119 43 -207 82 -158 70 69 -17 361 -68 470 -83 186 -24 607 -24 765 0 172
27 324 63 467 111 239 80 372 143 651 309 l152 90 0 631 c0 347 -5 673 -10
725 -12 111 -37 164 -92 192 -38 19 -134 37 -228 41 -49 3 -55 6 -58 26 -2 15
3 25 17 30 11 4 323 6 693 6 591 -1 685 -4 773 -19z m1863 -90 c-3 -3 -9 2
-12 12 -6 14 -5 15 5 6 7 -7 10 -15 7 -18z m-68 -16 c0 -6 -4 -7 -10 -4 -5 3
-10 11 -10 16 0 6 5 7 10 4 6 -3 10 -11 10 -16z m11 -66 c13 -16 12 -17 -3 -4
-10 7 -18 15 -18 17 0 8 8 3 21 -13z m59 -83 c0 -5 -2 -10 -4 -10 -3 0 -8 5
-11 10 -3 6 -1 10 4 10 6 0 11 -4 11 -10z m540 -190 c-19 -13 -30 -13 -30 0 0
6 10 10 23 10 18 0 19 -2 7 -10z m40 -4 c0 -2 -7 -7 -16 -10 -8 -3 -12 -2 -9
4 6 10 25 14 25 6z m44 -15 c19 -7 19 -8 -2 -13 -12 -4 -20 -2 -17 2 3 5 -1
11 -7 13 -7 3 -8 5 -3 6 6 0 19 -4 29 -8z m-87 -7 c-3 -3 -12 -4 -19 -1 -8 3
-5 6 6 6 11 1 17 -2 13 -5z m16 -21 c-7 -2 -21 -2 -30 0 -10 3 -4 5 12 5 17 0
24 -2 18 -5z m50 -10 c-7 -2 -19 -2 -25 0 -7 3 -2 5 12 5 14 0 19 -2 13 -5z
m94 -9 c-3 -3 -12 -4 -19 -1 -8 3 -5 6 6 6 11 1 17 -2 13 -5z m48 -4 c-3 -5
-14 -10 -23 -10 -15 0 -15 2 -2 10 20 13 33 13 25 0z m85 -20 c8 -5 11 -10 5
-10 -5 0 -17 5 -25 10 -8 5 -10 10 -5 10 6 0 17 -5 25 -10z m-585 -19 c3 -5 2
-12 -3 -15 -5 -3 -9 1 -9 9 0 17 3 19 12 6z m-73 -64 c-4 -14 -7 -16 -13 -5
-12 19 -11 25 5 25 8 0 11 -8 8 -20z m102 -13 c3 -8 2 -12 -4 -9 -6 3 -10 10
-10 16 0 14 7 11 14 -7z m-74 -27 c0 -7 -4 -6 -10 3 -8 12 -10 12 -10 1 0 -8
-3 -12 -6 -8 -9 9 6 28 17 22 5 -4 9 -12 9 -18z m8 -88 c-3 -8 -7 -3 -11 10
-4 17 -3 21 5 13 5 -5 8 -16 6 -23z m39 -151 c-3 -8 -6 -5 -6 6 -1 11 2 17 5
13 3 -3 4 -12 1 -19z m100 0 c-3 -8 -6 -5 -6 6 -1 11 2 17 5 13 3 -3 4 -12 1
-19z m-70 -150 c-3 -7 -5 -2 -5 12 0 14 2 19 5 13 2 -7 2 -19 0 -25z m-1227
-67 c-161 -58 -183 -67 -325 -138 -169 -84 -303 -168 -378 -236 l-67 -62 107
-135 c488 -615 571 -716 687 -838 50 -52 58 -65 46 -74 -12 -8 -12 -9 3 -4 12
4 33 -8 65 -37 80 -73 126 -105 213 -147 75 -36 80 -40 46 -38 -20 2 -37 6
-37 10 0 15 -76 47 -91 37 -12 -7 -12 -9 1 -10 10 0 9 -3 -5 -9 -15 -7 -9 -8
21 -5 46 4 70 -6 59 -25 -5 -9 -4 -11 3 -6 7 4 12 2 12 -4 0 -6 -7 -13 -15
-16 -8 -4 -15 -11 -15 -17 0 -5 8 -3 18 6 22 20 37 11 17 -9 -9 -9 -41 -15
-92 -16 -43 -1 19 -5 137 -8 l215 -6 -290 -1 c-324 -3 -399 6 -505 54 -131 60
-242 164 -420 393 -91 117 -149 198 -394 543 -53 75 -99 137 -102 137 -2 0
-69 -54 -149 -119 -80 -66 -183 -148 -230 -183 l-85 -63 0 -150 c0 -176 14
-349 35 -422 15 -52 53 -95 96 -108 12 -4 76 -12 143 -19 105 -9 121 -13 124
-30 2 -10 -1 -23 -7 -29 -12 -12 -1123 -17 -1158 -5 -25 8 -32 46 -10 52 6 2
53 8 103 14 51 6 101 16 112 23 50 31 77 123 89 303 6 95 5 99 -13 92 -194
-77 -360 -117 -564 -136 -178 -17 -208 -11 -90 18 182 46 365 112 535 196 262
129 359 198 926 657 336 271 598 427 869 517 139 46 376 95 480 100 8 1 -46
-21 -120 -47z m1237 7 c-3 -7 -5 -2 -5 12 0 14 2 19 5 13 2 -7 2 -19 0 -25z
m20 -160 c-3 -7 -5 -2 -5 12 0 14 2 19 5 13 2 -7 2 -19 0 -25z m100 -55 c-3
-10 -5 -2 -5 17 0 19 2 27 5 18 2 -10 2 -26 0 -35z m-100 -350 c-3 -10 -5 -2
-5 17 0 19 2 27 5 18 2 -10 2 -26 0 -35z m90 -15 c-3 -8 -6 -5 -6 6 -1 11 2
17 5 13 3 -3 4 -12 1 -19z m-10 -110 c-3 -7 -5 -2 -5 12 0 14 2 19 5 13 2 -7
2 -19 0 -25z m-100 -10 c-3 -8 -6 -5 -6 6 -1 11 2 17 5 13 3 -3 4 -12 1 -19z
m-10 -50 c-3 -8 -6 -5 -6 6 -1 11 2 17 5 13 3 -3 4 -12 1 -19z m-10 -60 c-3
-7 -5 -2 -5 12 0 14 2 19 5 13 2 -7 2 -19 0 -25z m-87 -364 c-4 -16 -9 -24 -9
-17 -1 6 -4 19 -8 29 -5 12 -3 15 6 9 10 -6 11 -2 7 16 -5 19 -5 20 3 8 6 -10
7 -27 1 -45z m88 6 c-5 -17 -14 -32 -19 -35 -4 -3 -2 10 6 28 8 19 11 38 7 42
-4 5 -2 5 5 1 9 -5 9 -14 1 -36z m-49 -129 c-12 -28 -24 -50 -26 -48 -2 2 6
27 18 56 12 28 24 50 26 48 2 -2 -6 -27 -18 -56z m-4356 -78 c113 -227 240
-405 421 -592 203 -208 386 -341 651 -472 354 -174 694 -248 1093 -236 538 16
1026 200 1447 547 37 30 72 54 79 52 6 -2 7 0 3 4 -12 12 133 153 152 147 12
-4 13 -2 3 4 -10 8 -7 15 11 34 13 13 43 50 67 82 40 53 44 56 60 42 16 -14
19 -14 34 9 9 14 16 31 16 38 -1 7 -7 2 -14 -11 -10 -18 -15 -20 -20 -10 -3 8
-3 3 0 -11 6 -24 6 -24 -12 -7 -19 18 -18 19 4 34 12 9 22 22 22 30 0 8 5 11
12 7 7 -5 8 -3 3 6 -4 7 -3 15 2 19 10 7 106 162 138 224 11 21 21 33 23 28 2
-5 -5 -22 -14 -38 -10 -16 -12 -23 -4 -15 20 18 29 15 23 -8 -3 -10 -10 -18
-15 -17 -19 4 -19 -20 -1 -39 14 -14 14 -17 3 -12 -9 3 -31 -2 -49 -12 l-34
-17 29 -6 c20 -4 32 -1 38 10 7 14 11 12 23 -8 11 -19 13 -20 9 -4 -3 11 -1
27 4 35 9 13 10 13 10 0 1 -8 7 -3 15 12 15 26 11 58 -6 58 -4 0 -6 7 -2 16 5
13 9 10 20 -12 l13 -29 -5 30 c-4 26 -3 28 6 9 11 -22 -14 -83 -69 -166 -23
-35 -26 -37 -38 -21 -12 17 -13 17 -14 1 0 -9 5 -20 10 -23 11 -7 4 -24 -24
-60 -15 -20 -15 -20 -13 2 0 12 5 19 11 16 5 -4 6 -1 1 7 -5 9 -4 11 3 6 9 -5
9 -1 3 16 -6 15 -5 31 2 44 10 18 9 18 -8 4 -11 -9 -16 -10 -11 -2 4 6 3 12
-2 12 -5 0 -12 -9 -15 -20 -3 -11 0 -18 7 -17 6 1 11 -7 11 -18 0 -11 -5 -20
-12 -20 -6 0 -15 -3 -19 -8 -4 -4 0 -7 9 -7 13 0 14 -6 7 -31 -13 -44 -39 -81
-52 -73 -6 4 -8 3 -5 -3 7 -12 -43 -87 -67 -100 -8 -4 -15 -12 -14 -16 0 -5
-28 -38 -62 -73 -54 -56 -64 -63 -79 -52 -14 12 -15 11 -2 -4 9 -13 10 -18 2
-18 -7 0 -9 -4 -6 -10 3 -5 3 -10 -2 -11 -24 -2 -46 -8 -51 -15 -4 -4 2 -4 13
-1 27 9 -91 -101 -185 -173 -353 -269 -756 -435 -1195 -491 -162 -21 -484 -16
-650 10 -384 59 -690 176 -999 382 -338 224 -597 504 -795 858 -53 95 -121
236 -121 252 0 5 27 9 60 9 l59 0 54 -107z m4268 64 c-8 -8 -11 -6 -12 9 -1
15 -3 14 -9 -6 -5 -15 -8 -18 -9 -8 -1 9 2 23 5 32 5 14 7 14 21 0 12 -11 13
-18 4 -27z m-48 -109 c-9 -20 -10 -17 -9 20 1 35 2 39 10 23 6 -13 5 -29 -1
-43z m24 0 c-3 -8 -6 -5 -6 6 -1 11 2 17 5 13 3 -3 4 -12 1 -19z m41 -1 c15 6
15 5 3 -11 -11 -13 -16 -14 -22 -4 -5 7 -8 20 -8 28 1 11 2 11 6 -2 3 -11 10
-15 21 -11z m-61 -89 c-3 -8 -6 -5 -6 6 -1 11 2 17 5 13 3 -3 4 -12 1 -19z
m-642 -218 c3 -5 2 -10 -4 -10 -5 0 -13 5 -16 10 -3 6 -2 10 4 10 5 0 13 -4
16 -10z m104 -6 c10 -9 -35 -3 -49 6 -11 8 -7 9 15 4 17 -4 32 -8 34 -10z
m-56 -11 c-7 -2 -19 -2 -25 0 -7 3 -2 5 12 5 14 0 19 -2 13 -5z m155 0 c-10
-2 -26 -2 -35 0 -10 3 -2 5 17 5 19 0 27 -2 18 -5z m-178 -17 c0 -2 -9 -6 -20
-9 -11 -3 -18 -1 -14 4 5 9 34 13 34 5z m105 -6 c3 -6 -1 -7 -9 -4 -18 7 -21
14 -7 14 6 0 13 -4 16 -10z"/>
<path d="M5190 5646 c0 -2 8 -10 18 -17 15 -13 16 -12 3 4 -13 16 -21 21 -21
13z"/>
<path d="M5116 5611 c-6 -9 7 -22 34 -35 8 -4 4 1 -9 12 -23 19 -23 20 -5 25
15 4 16 5 2 6 -9 0 -19 -3 -22 -8z"/>
<path d="M5289 5543 c-13 -16 -12 -17 4 -4 9 7 17 15 17 17 0 8 -8 3 -21 -13z"/>
<path d="M5330 5480 c0 -5 5 -10 11 -10 5 0 7 5 4 10 -3 6 -8 10 -11 10 -2 0
-4 -4 -4 -10z"/>
<path d="M5376 5482 c-2 -4 4 -8 14 -8 10 0 16 4 14 8 -3 4 -9 8 -14 8 -5 0
-11 -4 -14 -8z"/>
<path d="M5374 5448 c-4 -7 -2 -8 5 -4 6 4 18 2 26 -4 8 -6 19 -9 25 -5 14 9
13 -8 -2 -25 -11 -12 -10 -12 3 -2 13 10 21 6 44 -18 33 -35 23 -41 -12 -8
-21 20 -23 20 -17 4 6 -15 4 -17 -6 -11 -9 5 -11 4 -6 -4 4 -6 12 -9 17 -5 5
3 17 0 25 -7 10 -8 18 -9 25 -2 14 14 -63 95 -95 99 -14 1 -29 -2 -32 -8z"/>
<path d="M5385 5420 c3 -5 8 -10 11 -10 2 0 4 5 4 10 0 6 -5 10 -11 10 -5 0
-7 -4 -4 -10z"/>
<path d="M5412 5350 c7 -10 14 -18 15 -16 6 6 -9 36 -18 36 -5 0 -4 -9 3 -20z"/>
<path d="M5440 5339 c0 -5 5 -7 10 -4 6 3 10 8 10 11 0 2 -4 4 -10 4 -5 0 -10
-5 -10 -11z"/>
<path d="M5467 5328 c-2 -7 -1 -22 3 -33 9 -24 40 -53 40 -37 0 5 -6 12 -14
15 -15 6 -29 47 -15 47 5 0 9 5 9 10 0 14 -17 12 -23 -2z"/>
<path d="M5650 5095 c-7 -9 -11 -18 -8 -20 3 -3 11 1 18 10 7 9 11 18 8 20 -3
3 -11 -1 -18 -10z"/>
<path d="M3320 4947 l-25 -13 -5 -553 c-3 -304 -4 -554 -2 -556 2 -2 79 52
170 119 200 147 444 313 565 385 98 59 96 56 71 161 -50 214 -200 383 -395
445 -69 22 -98 25 -217 25 -90 0 -146 -5 -162 -13z"/>
<path d="M5948 4733 c6 -2 18 -2 25 0 6 3 1 5 -13 5 -14 0 -19 -2 -12 -5z"/>
<path d="M6045 4720 c-13 -6 -15 -9 -5 -9 8 0 22 4 30 9 18 12 2 12 -25 0z"/>
<path d="M6098 4723 c7 -3 16 -2 19 1 4 3 -2 6 -13 5 -11 0 -14 -3 -6 -6z"/>
<path d="M6013 4693 c15 -2 37 -2 50 0 12 2 0 4 -28 4 -27 0 -38 -2 -22 -4z"/>
<path d="M6113 4663 c9 -2 25 -2 35 0 9 3 1 5 -18 5 -19 0 -27 -2 -17 -5z"/>
<path d="M4830 2606 c0 -2 8 -10 18 -17 15 -13 16 -12 3 4 -13 16 -21 21 -21
13z"/>
<path d="M4949 2488 c14 -17 20 -31 15 -40 -6 -10 -4 -10 9 1 10 8 16 14 15
15 -2 1 -16 12 -33 26 l-30 25 24 -27z"/>
<path d="M5060 2391 c0 -9 30 -24 36 -18 2 1 -6 8 -16 15 -11 7 -20 8 -20 3z"/>
<path d="M5794 2506 c-8 -22 -2 -27 16 -16 12 7 12 12 3 21 -10 10 -14 9 -19
-5z"/>
<path d="M5730 2403 c-11 -19 -19 -40 -18 -46 1 -7 -1 -22 -6 -34 -5 -16 -1
-29 13 -45 16 -17 21 -18 21 -6 0 9 -7 21 -15 28 -11 9 -12 16 -4 26 6 7 8 17
5 22 -3 5 3 27 14 48 10 22 19 33 20 27 0 -7 9 -13 19 -13 10 0 22 -8 25 -17
6 -15 8 -15 23 0 21 20 18 24 -34 35 -41 10 -43 9 -63 -25z"/>
<path d="M5687 2257 c-9 -15 -17 -39 -16 -54 l1 -28 7 25 c5 17 13 24 25 22
11 -2 15 1 11 8 -4 6 -14 9 -24 6 -13 -5 -12 -3 3 8 10 8 16 20 14 27 -2 7
-11 1 -21 -14z"/>
<path d="M5645 2159 c-4 -6 -5 -12 -2 -15 2 -3 7 2 10 11 7 17 1 20 -8 4z"/>
<path d="M5606 2152 c-3 -5 1 -9 9 -9 8 0 12 4 9 9 -3 4 -7 8 -9 8 -2 0 -6 -4
-9 -8z"/>
<path d="M5606 2122 c-3 -5 1 -9 9 -9 8 0 12 4 9 9 -3 4 -7 8 -9 8 -2 0 -6 -4
-9 -8z"/>
<path d="M5515 2030 c-4 -6 -3 -16 3 -22 6 -6 12 -6 17 2 4 6 3 16 -3 22 -6 6
-12 6 -17 -2z"/>
<path d="M5481 1991 c-7 -5 -9 -11 -5 -14 5 -3 15 1 22 9 14 16 5 18 -17 5z"/>
</g>
</svg>
